<!DOCTYPE svg PUBLIC "-//W3C//DTD SVG 1.1//EN" "http://www.w3.org/Graphics/SVG/1.1/DTD/svg11.dtd">
<!-- Uploaded to: SVG Repo, www.svgrepo.com, Transformed by: SVG Repo Mixer Tools -->
<svg fill="#000000" width="256px" height="256px" viewBox="0 0 24.00 24.00" id="thunder-sign-square" data-name="Flat Color" xmlns="http://www.w3.org/2000/svg" class="icon flat-color" stroke="#000000" stroke-width="0.00024000000000000003" transform="rotate(0)">
<g id="SVGRepo_bgCarrier" stroke-width="0">
<rect x="0" y="0" width="24.00" height="24.00" rx="1.92" fill="#000000" strokewidth="0"/>
</g>
<g id="SVGRepo_tracerCarrier" stroke-linecap="round" stroke-linejoin="round" stroke="#CCCCCC" stroke-width="0.144"/>
<g id="SVGRepo_iconCarrier">
<rect id="primary" x="2" y="2" width="20" height="20" rx="2" style="fill: #000000;"/>
<path id="secondary" d="M12,17a.93.93,0,0,1-.45-.11,1,1,0,0,1-.44-1.34L12.38,13H10a1,1,0,0,1-.89-1.45l2-4a1,1,0,0,1,1.78.9L11.62,11H14a1,1,0,0,1,.89,1.45l-2,4A1,1,0,0,1,12,17Z" style="fill: #2cdbaf;"/>
</g>
</svg>